# xmcd
#
# Track frame offsets: 
#        150
#        15318
#        29454
#        43899
#        57760
#        72566
#        88254
#        105909
#        123284
#        139605
#        154530
#        168934
#        184170
#        199076
#        214023
#        227963
#        246249
#        261559
#        276623
#        292402
#
# Disc length: 4106 seconds
#
# Revision: 4
# Processed by: cddbd v1.5.1PL0 Copyright (c) Steve Scherf et al.
# Submitted via: ExactAudioCopy v0.95b1
#
DISCID=32100814
DTITLE=Various Artist - Bääärenstark !!! Hits 2004 CD 1
DYEAR=2004
DGENRE=Deutsch Pop
TTITLE0=De Randfichten - Lebt denn der alte Holzmichl noch?
TTITLE1=Andrea Berg - Du
TTITLE2=Reim and Bonnie Tyler - Vergiss es (Forget It)
TTITLE3=Die Flippers - Wetten das...
TTITLE4=Nicole - Ich will Musik
TTITLE5=Rainhard Fendrich feat.Carmen Jaime - Soy tu vida (...weil ich
TTITLE5=Dein Leben bin)
TTITLE6=Juliane Werding - Die Welt danach
TTITLE7=Roland Kaiser - Ich liebe Dich so wie du bist
TTITLE8=Geschwister Hofmann - Mitten im Vulkan
TTITLE9=Bernhard Brink - Verdammt,das muss Liebe sein
TTITLE10=Gaby Baginski - Man kann nicht immer nur gewinnen
TTITLE11=Uwe Busse - Die Hormone fahren Achterbahn
TTITLE12=G.G.Anderson - Herz auf Rot
TTITLE13=Looping - Ganz schön mutig
TTITLE14=Ireen Sheer - Ich komm wieder (I'm Still Standing)
TTITLE15=Christian Lais - Tu vincerai
TTITLE16=Olaf Berger - Du warst mir noch nie so nah
TTITLE17=Vivian Lindt - Mach es gut Cherie
TTITLE18=Claudia Jung and Tochter Anna - Heut fliegt ein Engel durch die
TTITLE18=Nacht
TTITLE19=Schürzenjäger - In mir hast Du immer einen Freund
EXTD=YEAR: 2004
EXTT0=
EXTT1=
EXTT2=
EXTT3=
EXTT4=
EXTT5=
EXTT6=
EXTT7=
EXTT8=
EXTT9=
EXTT10=
EXTT11=
EXTT12=
EXTT13=
EXTT14=
EXTT15=
EXTT16=
EXTT17=
EXTT18=
EXTT19=
PLAYORDER=
